<?xml version="1.0" encoding="utf-8"?>
<!-- Generator: Adobe Illustrator 24.1.1, SVG Export Plug-In . SVG Version: 6.00 Build 0)  -->
<svg version="1.1" id="Laag_1" xmlns="http://www.w3.org/2000/svg" xmlns:xlink="http://www.w3.org/1999/xlink" x="0px" y="0px"
	 viewBox="0 0 35 47.5" style="enable-background:new 0 0 35 47.5;" xml:space="preserve">
<style type="text/css">
	.st0{fill:#FFFFFF;}
	.st1{fill:#E60000;}
</style>
<circle class="st0" cx="17.5" cy="17.5" r="17.5"/>
<circle class="st1" cx="17.5" cy="17.5" r="15.9"/>
<g transform="translate(0,-952.36218)">
	<path class="st0" d="M17.5,958.1c-0.3,0-0.5,0.2-0.5,0.5v1.9c0,0.3,0.2,0.5,0.5,0.5s0.5-0.2,0.5-0.5v-1.9
		C18,958.3,17.8,958.1,17.5,958.1z M10.8,960.9c-0.1,0-0.2,0-0.3,0.1c-0.2,0.2-0.2,0.5,0,0.7l1.3,1.3c0.2,0.2,0.5,0.2,0.7,0
		s0.2-0.5,0-0.7l-1.3-1.3C11.1,960.9,10.9,960.9,10.8,960.9z M24.2,960.9c-0.1,0-0.2,0-0.3,0.1l-1.3,1.3c-0.2,0.2-0.2,0.5,0,0.7
		s0.5,0.2,0.7,0l1.3-1.3c0.2-0.2,0.2-0.5,0-0.7C24.4,960.9,24.3,960.9,24.2,960.9z M17.5,962.3c-2.9,0-5.7,2.2-5.7,5.4
		c0,3.9,2.7,4.9,3,7.4h5.3c0.3-2.5,3-3.5,3-7.4C23.2,964.6,20.4,962.3,17.5,962.3z M17,963.5c0.3,0,0.6,0.1,0.6,0.5
		c0,0.2-0.2,0.5-0.5,0.5c-1.8,0.2-3.1,1.7-3.1,3.5c0,0.4,0.1,0.7,0.2,1c0.1,0.2-0.1,0.6-0.3,0.6c-0.3,0.1-0.5-0.1-0.6-0.4
		c-0.1-0.4-0.2-0.9-0.2-1.3C13,965.7,14.7,963.8,17,963.5z M8.1,967.5c-0.3,0-0.5,0.2-0.5,0.5s0.2,0.5,0.5,0.5H10
		c0.3,0,0.5-0.2,0.5-0.5s-0.2-0.5-0.5-0.5H8.1z M25.1,967.5c-0.3,0-0.5,0.2-0.5,0.5s0.2,0.5,0.5,0.5H27c0.3,0,0.5-0.2,0.5-0.5
		s-0.2-0.5-0.5-0.5H25.1z M14.9,976v0.9h5.2V976H14.9z M14.9,977.9v0.5c0,0.5,0.4,0.9,0.9,0.9h3.3c0.5,0,0.9-0.4,0.9-0.9v-0.5H14.9z
		 M16.6,979.8c0,0.5,0.4,0.9,0.9,0.9s0.9-0.4,0.9-0.9H16.6z"/>
</g>
<g>
	<circle class="st1" cx="23.7" cy="37.8" r="9.8"/>
	<circle class="st0" cx="23.7" cy="37.8" r="8.1"/>
	<g>
		<path class="st1" d="M28.9,37v1.5c0,0.2-0.1,0.3-0.3,0.3h-3.8c-0.1,0-0.1,0.1-0.1,0.1v3.8c0,0.2-0.1,0.3-0.3,0.3h-1.5
			c-0.2,0-0.3-0.1-0.3-0.3v-3.8c0-0.1-0.1-0.1-0.1-0.1h-3.8c-0.2,0-0.3-0.1-0.3-0.3V37c0-0.2,0.1-0.3,0.3-0.3h3.8
			c0.1,0,0.1-0.1,0.1-0.1v-3.8c0-0.2,0.1-0.3,0.3-0.3h1.5c0.2,0,0.3,0.1,0.3,0.3v3.8c0,0.1,0.1,0.1,0.1,0.1h3.8
			C28.8,36.7,28.9,36.8,28.9,37z"/>
	</g>
</g>
</svg>
